<?xml version="1.0" encoding="UTF-8"?>
<svg width="57px" height="56px" viewBox="0 0 57 56" version="1.1" xmlns="http://www.w3.org/2000/svg" xmlns:xlink="http://www.w3.org/1999/xlink">
    <title>F7EFD7F6-0369-42D1-BA00-06C81A060D6F</title>
    <g id="Page-1" stroke="none" stroke-width="1" fill="none" fill-rule="evenodd">
        <g id="Piario-landing" transform="translate(-631.000000, -5584.000000)">
            <g id="more-features" transform="translate(0.000000, 4944.000000)">
                <g id="creator" transform="translate(632.000000, 640.000000)">
                    <g id="ico-creator">
                        <path d="M56,16 C56,24.8384 48.8384,32 40,32 C31.1616,32 24,24.8384 24,16 C24,7.1616 31.1616,0 40,0 C48.8384,0 56,7.1616 56,16" id="Fill-424" fill="#9B51E0" opacity="0.200000003"></path>
                        <g id="ico" transform="translate(0.000000, 18.000000)" stroke="#9B51E0" stroke-width="2">
                            <path d="M38.5,4 L38.5,9 L38.5,4 Z M32,4 L42.3157895,4 L46,6.5 L42.3157895,9 L32,9 M12.952381,9 L2.28571429,9 C1.02095238,9 0,7.88333333 0,6.5 C0,5.11666667 1.02095238,4 2.28571429,4 L16,4 M7.5,4 L7.5,9 L7.5,4 Z M4.5,4 L4.5,9 L4.5,4 Z" id="Stroke-429" stroke-linejoin="round"></path>
                            <path d="M27.75,22 L27.75,20.3703704 L30,12.2222222 L30,4.07407407 C30,3.17777778 29.325,2.44444444 28.5,2.44444444 C27.675,2.44444444 27,3.17777778 27,4.07407407 L27,3.25925926 C27,2.36296296 26.325,1.62962963 25.5,1.62962963 C24.675,1.62962963 24,2.36296296 24,3.25925926 L24,1.62962963 C24,0.733333333 23.325,0 22.5,0 C21.675,0 21,0.733333333 21,1.62962963 L21,3.25925926 C21,2.36296296 20.325,1.62962963 19.5,1.62962963 C18.675,1.62962963 18,2.36296296 18,3.25925926 L18,10.5925926 M21.5,3 L21.5,5 M24.5,3 L24.5,5 M27.5,4 L27.5,5 M18.2,9 L15,9 L15,12.25 L16.6,15.5 L19,18.75 L19,22" id="Stroke-431"></path>
                            <path d="M18,38 L18,22 L29,22 L29,38 M27,25.5 L25,25.5 M31.5,38 L31.5,30" id="Stroke-433"></path>
                        </g>
                    </g>
                </g>
            </g>
        </g>
    </g>
</svg>