<?xml version="1.0" encoding="UTF-8"?>
<svg width="56px" height="57px" viewBox="0 0 56 57" version="1.1" xmlns="http://www.w3.org/2000/svg" xmlns:xlink="http://www.w3.org/1999/xlink">
    <title>37D2B7DF-0FC4-4A09-B184-79E6BA4516C3</title>
    <g id="Page-1" stroke="none" stroke-width="1" fill="none" fill-rule="evenodd">
        <g id="Piario-landing" transform="translate(-632.000000, -5272.000000)">
            <g id="more-features" transform="translate(0.000000, 4944.000000)">
                <g id="autoposting" transform="translate(632.000000, 328.000000)">
                    <g id="ico-autoposting" transform="translate(1.000000, 0.000000)">
                        <circle id="Oval" fill="#9B51E0" opacity="0.200000003" cx="39" cy="16" r="16"></circle>
                        <g id="ico" transform="translate(0.000000, 10.000000)" stroke="#9B51E0" stroke-width="2">
                            <polygon id="Stroke-13272" points="10 26 29 26 29 19 10 19"></polygon>
                            <path d="M8,21 L5.33333333,21 C4.59733333,21 4,20.3429333 4,19.5333333 L4,10" id="Stroke-13273" stroke-linejoin="round"></path>
                            <polyline id="Stroke-13274" stroke-linejoin="round" points="7 13 4 10 1 13"></polyline>
                            <path d="M32,21 L34.6666667,21 C35.4026667,21 36,20.3429333 36,19.5333333 L36,10" id="Stroke-13275"></path>
                            <polyline id="Stroke-13276" points="33 13 36 10 39 13"></polyline>
                            <line x1="20.5" y1="17" x2="20.5" y2="10" id="Stroke-13277"></line>
                            <polyline id="Stroke-13278" points="23 13 20 10 17 13"></polyline>
                            <path d="M8,24 L5.33333333,24 C4.59733333,24 4,24.6570667 4,25.4666667 L4,35" id="Stroke-13279" stroke-linejoin="round"></path>
                            <polyline id="Stroke-13280" stroke-linejoin="round" points="7 33 4 36 1 33"></polyline>
                            <path d="M32,24 L34.6666667,24 C35.4026667,24 36,24.6570667 36,25.4666667 L36,35" id="Stroke-13281"></path>
                            <polyline id="Stroke-13282" points="33 33 36 36 39 33"></polyline>
                            <line x1="20.5" y1="29" x2="20.5" y2="36" id="Stroke-13283"></line>
                            <polyline id="Stroke-13284" points="23 33 20 36 17 33"></polyline>
                            <path d="M7,3.5 C7,5.4334 5.4327,7 3.5,7 C1.5673,7 0,5.4334 0,3.5 C0,1.5666 1.5673,0 3.5,0 C5.4327,0 7,1.5666 7,3.5 Z" id="Stroke-13285"></path>
                            <path d="M23,3.5 C23,5.4334 21.4327,7 19.5,7 C17.5673,7 16,5.4334 16,3.5 C16,1.5666 17.5673,0 19.5,0 C21.4327,0 23,1.5666 23,3.5 Z" id="Stroke-13286"></path>
                            <path d="M40,3.5 C40,5.4334 38.4327,7 36.5,7 C34.5673,7 33,5.4334 33,3.5 C33,1.5666 34.5673,0 36.5,0 C38.4327,0 40,1.5666 40,3.5 Z" id="Stroke-13287"></path>
                            <path d="M7,42.5 C7,44.4334 5.4327,46 3.5,46 C1.5673,46 0,44.4334 0,42.5 C0,40.5666 1.5673,39 3.5,39 C5.4327,39 7,40.5666 7,42.5 Z" id="Stroke-13288"></path>
                            <path d="M23,42.5 C23,44.4334 21.4327,46 19.5,46 C17.5673,46 16,44.4334 16,42.5 C16,40.5666 17.5673,39 19.5,39 C21.4327,39 23,40.5666 23,42.5 Z" id="Stroke-13289"></path>
                            <path d="M40,42.5 C40,44.4334 38.4327,46 36.5,46 C34.5673,46 33,44.4334 33,42.5 C33,40.5666 34.5673,39 36.5,39 C38.4327,39 40,40.5666 40,42.5 Z" id="Stroke-13290"></path>
                            <line x1="19" y1="23.5" x2="20" y2="23.5" id="Stroke-13291"></line>
                            <line x1="16" y1="23.5" x2="17" y2="23.5" id="Stroke-13292"></line>
                            <line x1="22" y1="23.5" x2="23" y2="23.5" id="Stroke-13293"></line>
                        </g>
                    </g>
                </g>
            </g>
        </g>
    </g>
</svg>