<?xml version="1.0" encoding="UTF-8"?>
<svg width="57px" height="57px" viewBox="0 0 57 57" version="1.1" xmlns="http://www.w3.org/2000/svg" xmlns:xlink="http://www.w3.org/1999/xlink">
    <title>E28E3DA5-794C-4CBE-9F2E-921309E04FF6</title>
    <g id="Page-1" stroke="none" stroke-width="1" fill="none" fill-rule="evenodd">
        <g id="Piario-landing" transform="translate(-967.000000, -5272.000000)">
            <g id="more-features" transform="translate(0.000000, 4944.000000)">
                <g id="schedule" transform="translate(968.000000, 328.000000)">
                    <g id="ico-schedule">
                        <circle id="Oval" fill="#9B51E0" opacity="0.200000003" cx="40" cy="16" r="16"></circle>
                        <g id="ico" transform="translate(0.000000, 10.000000)" stroke="#9B51E0" stroke-width="2">
                            <path d="M41,26 C41,37.0459259 31.8220741,46 20.5,46 C9.17792593,46 0,37.0459259 0,26 C0,14.9540741 9.17792593,6 20.5,6 C31.8220741,6 41,14.9540741 41,26 Z" id="Stroke-9042"></path>
                            <path d="M24,3 C24,4.65675 22.65675,6 21,6 C19.34325,6 18,4.65675 18,3 C18,1.34325 19.34325,0 21,0 C22.65675,0 24,1.34325 24,3 Z" id="Stroke-9043"></path>
                            <line x1="20.5" y1="8" x2="20.5" y2="9" id="Stroke-9044"></line>
                            <line x1="20.5" y1="24" x2="20.5" y2="11" id="Stroke-9045"></line>
                            <line x1="2" y1="26.5" x2="4" y2="26.5" id="Stroke-9047"></line>
                            <line x1="39" y1="26.5" x2="37" y2="26.5" id="Stroke-9048"></line>
                            <line x1="20.5" y1="43" x2="20.5" y2="42" id="Stroke-9049"></line>
                            <path d="M23,26 C23,27.1046667 21.8808333,28 20.5,28 C19.1191667,28 18,27.1046667 18,26 C18,24.8953333 19.1191667,24 20.5,24 C21.8808333,24 23,24.8953333 23,26 Z" id="Stroke-9050"></path>
                            <line x1="37" y1="10" x2="35" y2="12" id="Stroke-9052"></line>
                            <polygon id="Stroke-9053" stroke-linejoin="round" points="35 7.33333333 39.6666667 12 42 9.66666667 37.3333333 5"></polygon>
                            <path d="M20.354423,12 C28.4426356,12 35,18.2683158 35,26 C35,33.7316842 28.4426356,40 20.354423,40 C16.3114729,40 12.6508494,38.4342105 10,35.9016842" id="Stroke-9054"></path>
                            <path d="M21.0410076,16 C26.5414357,16 31,20.2530769 31,25.5 C31,30.7469231 26.5414357,35 21.0410076,35 C18.2915596,35 15.8025776,33.9367308 14,32.2179615" id="Stroke-9055"></path>
                            <line x1="20.5" y1="6" x2="20.5" y2="3" id="Stroke-9060"></line>
                        </g>
                    </g>
                </g>
            </g>
        </g>
    </g>
</svg>