<?xml version="1.0" encoding="UTF-8"?>
<svg width="57px" height="56px" viewBox="0 0 57 56" version="1.1" xmlns="http://www.w3.org/2000/svg" xmlns:xlink="http://www.w3.org/1999/xlink">
    <title>6674E974-AF55-4204-991A-CCCF7897C91A</title>
    <g id="Page-1" stroke="none" stroke-width="1" fill="none" fill-rule="evenodd">
        <g id="Piario-landing" transform="translate(-408.000000, -3872.000000)">
            <g id="features" transform="translate(72.000000, 3696.000000)">
                <g id="customize" transform="translate(336.000000, 176.000000)">
                    <g id="ico-customize" transform="translate(1.000000, 0.000000)">
                        <rect id="bg" fill="#FF934F" opacity="0.200000003" x="24" y="24" width="32" height="32" rx="16"></rect>
                        <g id="ico" stroke="#FF934F" stroke-width="2">
                            <g id="Group-9" transform="translate(0.000000, 1.000000)">
                                <rect id="Rectangle" x="1.76747506e-13" y="1.09003715e-14" width="6" height="44"></rect>
                                <line x1="3.05" y1="42" x2="3.05" y2="41" id="Path"></line>
                                <line x1="6" y1="34.05" x2="4" y2="34.05" id="Path"></line>
                                <line x1="6" y1="39.05" x2="4" y2="39.05" id="Path"></line>
                                <line x1="6" y1="30.05" x2="4" y2="30.05" id="Path"></line>
                                <line x1="6" y1="26.05" x2="4" y2="26.05" id="Path"></line>
                                <line x1="6" y1="21.05" x2="4" y2="21.05" id="Path"></line>
                                <line x1="6" y1="17.05" x2="4" y2="17.05" id="Path"></line>
                                <line x1="6" y1="13.05" x2="4" y2="13.05" id="Path"></line>
                                <line x1="6" y1="9.05" x2="4" y2="9.05" id="Path"></line>
                                <line x1="6" y1="4.05" x2="4" y2="4.05" id="Path"></line>
                            </g>
                            <rect id="Rectangle" x="12" y="1" width="3" height="3"></rect>
                            <rect id="Rectangle" x="29" y="1" width="3" height="3"></rect>
                            <rect id="Rectangle" x="12" y="15" width="3" height="3"></rect>
                            <rect id="Rectangle-Copy-7" x="29" y="15" width="3" height="3"></rect>
                            <line x1="14.5" y1="6" x2="14.5" y2="7" id="Path"></line>
                            <line x1="14.5" y1="9" x2="14.5" y2="10" id="Path"></line>
                            <line x1="14.5" y1="11" x2="14.5" y2="12" id="Path"></line>
                            <circle id="Oval" cx="22.5" cy="9.5" r="4.5"></circle>
                            <path d="M12,32 L12,24.1428571 C12,22.9598214 12.8951667,22 14,22 L14,22 C15.1048333,22 16,22.9598214 16,24.1428571 L16,32" id="Path"></path>
                            <g id="Group-10" transform="translate(23.000000, 22.000000)">
                                <path d="M8,21.5625 C8,22.3563594 7.403,23 6.66666667,23 L1.33333333,23 C0.597,23 -1.88293825e-13,22.3563594 -1.88293825e-13,21.5625 L-1.88293825e-13,1.4375 C-1.88293825e-13,0.643640625 0.597,2.78038462e-14 1.33333333,2.78038462e-14 L6.66666667,2.78038462e-14 C7.403,2.78038462e-14 8,0.643640625 8,1.4375 L8,21.5625 Z" id="Path"></path>
                                <line x1="1" y1="17.05" x2="8" y2="17.05" id="Path"></line>
                            </g>
                            <line x1="11" y1="32.05" x2="18" y2="32.05" id="Path"></line>
                            <line x1="13.05" y1="46" x2="13.05" y2="32" id="Path"></line>
                            <line x1="16.05" y1="46" x2="16.05" y2="32" id="Path"></line>
                            <line x1="18" y1="2.05" x2="19" y2="2.05" id="Path"></line>
                            <line x1="21" y1="2.05" x2="22" y2="2.05" id="Path"></line>
                            <line x1="24" y1="2.05" x2="25" y2="2.05" id="Path"></line>
                            <line x1="30.5" y1="6" x2="30.5" y2="7" id="Path"></line>
                            <line x1="30.5" y1="9" x2="30.5" y2="10" id="Path"></line>
                            <line x1="30.5" y1="11" x2="30.5" y2="12" id="Path"></line>
                            <line x1="24" y1="16.05" x2="25" y2="16.05" id="Path"></line>
                            <line x1="18" y1="16.05" x2="19" y2="16.05" id="Path"></line>
                            <line x1="21" y1="16.05" x2="22" y2="16.05" id="Path"></line>
                        </g>
                    </g>
                </g>
            </g>
        </g>
    </g>
</svg>