<?xml version="1.0" encoding="UTF-8"?>
<svg width="54px" height="55px" viewBox="0 0 54 55" version="1.1" xmlns="http://www.w3.org/2000/svg" xmlns:xlink="http://www.w3.org/1999/xlink">
    <title>2BCB6323-A697-4387-A4EA-6EC698CB1CD8</title>
    <g id="Page-1" stroke="none" stroke-width="1" fill="none" fill-rule="evenodd">
        <g id="Piario-landing" transform="translate(-408.000000, -4113.000000)">
            <g id="features" transform="translate(72.000000, 3696.000000)">
                <g id="quick" transform="translate(312.000000, 393.000000)">
                    <g id="ico-domain" transform="translate(24.000000, 24.000000)">
                        <rect id="bg" fill="#FF934F" opacity="0.200000003" x="0" y="23" width="32" height="32" rx="16"></rect>
                        <g id="ico" transform="translate(1.000000, 0.000000)" stroke="#FF934F" stroke-linejoin="round" stroke-width="2">
                            <polyline id="Path" points="7 23 0 23 0 18 7 18"></polyline>
                            <path d="M39.5594786,20.5 C39.5594786,19.1072197 40.6355669,17.97643 42,17.8650342 C41.5639395,14.9496963 40.4238484,12.2722096 38.7498102,10.0031005 C38.2705644,10.4675082 37.6207922,10.7556315 36.9019236,10.7556315 C35.4347317,10.7556315 34.2443685,9.56526829 34.2443685,8.09807644 C34.2443685,7.3792078 34.5324918,6.72943559 34.9968995,6.25018983 C32.7277904,4.57615161 30.0503037,3.43606049 27.1349658,3 C27.02357,4.36443305 25.8927803,5.44052139 24.5,5.44052139 C23.1072197,5.44052139 21.97643,4.36443305 21.8650342,3 C18.9496963,3.43606049 16.2722096,4.57615161 14.0031005,6.25018983 C14.4675082,6.72943559 14.7556315,7.3792078 14.7556315,8.09807644 C14.7556315,9.56526829 13.5652683,10.7556315 12.0980764,10.7556315 C11.3792078,10.7556315 10.7294356,10.4675082 10.2501898,10.0031005 C8.57615161,12.2722096 7.43606049,14.9496963 7,17.8650342 C8.36443305,17.97643 9.44052139,19.1072197 9.44052139,20.5 C9.44052139,21.8927803 8.36443305,23.02357 7,23.1349658 C7.43606049,26.0503037 8.57615161,28.7277904 10.2501898,30.9968995 C10.7294356,30.5324918 11.3792078,30.2443685 12.0980764,30.2443685 C13.5652683,30.2443685 14.7556315,31.4347317 14.7556315,32.9019236 C14.7556315,33.6207922 14.4675082,34.2705644 14.0031005,34.7498102 C16.2722096,36.4238484 18.9496963,37.5639395 21.8650342,38 C21.9766515,36.6357884 23.1072197,35.5594786 24.5,35.5594786 C25.8927803,35.5594786 27.02357,36.6355669 27.1349658,38 C30.0503037,37.5639395 32.7277904,36.4238484 34.9968995,34.7498102 C34.5324918,34.2705644 34.2443685,33.6207922 34.2443685,32.9019236 C34.2443685,31.4347317 35.4347317,30.2443685 36.9019236,30.2443685 C37.6207922,30.2443685 38.2705644,30.5324918 38.7498102,30.9968995 C40.4238484,28.7277904 41.5639395,26.0503037 42,23.1349658 C40.6355669,23.02357 39.5594786,21.8927803 39.5594786,20.5 Z" id="Path"></path>
                            <circle id="Oval" cx="25" cy="20" r="8"></circle>
                            <polyline id="Path" points="42 18 48.5591398 18 52 20.5 48.5591398 23 42 23"></polyline>
                            <line x1="47.05" y1="18" x2="47.05" y2="23" id="Path"></line>
                            <line x1="38" y1="6.05" x2="40" y2="6.05" id="Path"></line>
                            <line x1="38" y1="34.05" x2="40" y2="34.05" id="Path"></line>
                            <line x1="24" y1="1.05" x2="26" y2="1.05" id="Path"></line>
                            <line x1="24" y1="40.05" x2="26" y2="40.05" id="Path"></line>
                            <line x1="10" y1="6.05" x2="12" y2="6.05" id="Path"></line>
                            <line x1="10" y1="34.05" x2="12" y2="34.05" id="Path"></line>
                            <line x1="18" y1="18.5" x2="32" y2="18.5" id="Path"></line>
                            <line x1="18" y1="22.5" x2="32" y2="22.5" id="Path-Copy-3"></line>
                            <line x1="3.05" y1="18" x2="3.05" y2="23" id="Path"></line>
                        </g>
                    </g>
                </g>
            </g>
        </g>
    </g>
</svg>