<?xml version="1.0" encoding="UTF-8"?>
<svg width="56px" height="56px" viewBox="0 0 56 56" version="1.1" xmlns="http://www.w3.org/2000/svg" xmlns:xlink="http://www.w3.org/1999/xlink">
    <title>BA4917F3-7DBD-4066-AFCF-C7E14A2E26A1</title>
    <g id="Page-1" stroke="none" stroke-width="1" fill="none" fill-rule="evenodd">
        <g id="Piario-landing" transform="translate(-744.000000, -4112.000000)">
            <g id="features" transform="translate(72.000000, 3696.000000)">
                <g id="boost" transform="translate(672.000000, 416.000000)">
                    <g id="ico-shortener">
                        <rect id="bg" fill="#FF934F" opacity="0.200000003" x="0" y="0" width="32" height="32" rx="16"></rect>
                        <g id="ico" transform="translate(16.000000, 10.000000)" stroke="#FF934F" stroke-linejoin="round" stroke-width="2">
                            <polyline id="Path" points="21.7142857 20 21.7142857 8 6 8 6 5.6 18.5714286 0 32.7142857 0 32.7142857 8 37.4285714 8 39 11.2 31.1428571 11.2 31.1428571 20"></polyline>
                            <polygon id="Path" points="23 21 6 21 6 23.375 16.8181818 28.125 19.9090909 28.125 19.9090909 30.5 18.3636364 32.0833333 18.3636364 40 23 40"></polygon>
                            <polygon id="Path" points="30 21 39 21 37.5 24.1666667 33 24.1666667 33 40 30 40"></polygon>
                            <circle id="Oval" cx="6.5" cy="14.5" r="6.5"></circle>
                            <circle id="Oval" cx="6.5" cy="14.5" r="2.5"></circle>
                            <line x1="22.5" y1="40" x2="22.5" y2="46" id="Path"></line>
                            <line x1="31.5" y1="40" x2="31.5" y2="46" id="Path"></line>
                            <line x1="26.5" y1="10" x2="26.5" y2="13" id="Path"></line>
                            <line x1="26.5" y1="16" x2="26.5" y2="19" id="Path"></line>
                            <line x1="26.5" y1="22" x2="26.5" y2="25" id="Path"></line>
                            <line x1="26.5" y1="29" x2="26.5" y2="32" id="Path"></line>
                            <line x1="26.5" y1="35" x2="26.5" y2="38" id="Path"></line>
                            <line x1="26.5" y1="41" x2="26.5" y2="44" id="Path"></line>
                        </g>
                    </g>
                </g>
            </g>
        </g>
    </g>
</svg>