<svg width="77" height="28" viewBox="0 0 77 28" fill="none" xmlns="http://www.w3.org/2000/svg">
<path fill-rule="evenodd" clip-rule="evenodd" d="M21 3V0H18V3H21ZM3.00457 21.5046V28H0V10.3027C0 9.94814 0.0319635 9.59624 0.0958904 9.24702C0.159817 8.8978 0.322298 8.45457 0.583333 7.91731C0.844368 7.38005 1.19863 6.90726 1.64612 6.49895C2.09361 6.09063 2.76484 5.73873 3.65982 5.44324C4.55479 5.14775 5.59361 5 6.77626 5C7.38356 5 7.97755 5.05373 8.55822 5.16118C9.13889 5.26863 9.77283 5.51039 10.46 5.88648C11.1473 6.26256 11.7412 6.75146 12.242 7.35319C12.7428 7.95492 13.161 8.8011 13.4966 9.89173C13.8322 10.9824 14 12.2422 14 13.6713C14 15.3046 13.7789 16.6988 13.3368 17.8539C12.8946 19.009 12.2846 19.8659 11.5068 20.4247C10.7291 20.9834 9.93798 21.3837 9.13356 21.6254C8.32915 21.8672 7.44216 21.9881 6.4726 21.9881C5.26865 21.9881 4.11263 21.8269 3.00457 21.5046ZM3 18.3753C4.13067 18.7918 5.288 19 6.472 19C7.144 19 7.71733 18.9391 8.192 18.8172C8.66667 18.6953 9.13333 18.4617 9.592 18.1163C10.0507 17.771 10.4 17.2301 10.64 16.4938C10.88 15.7574 11 14.8255 11 13.6981C11 12.4894 10.88 11.4864 10.64 10.6891C10.4 9.89174 10.056 9.31025 9.608 8.9446C9.16 8.57895 8.71733 8.3301 8.28 8.19806C7.84267 8.06602 7.34133 8 6.776 8C4.25867 8 3 8.77701 3 10.331V18.3753ZM21 6V22H18V6H21ZM31.5607 22C32.6745 22 33.6565 21.8521 34.507 21.5565C35.3575 21.2608 35.9953 20.9086 36.4206 20.5C36.8458 20.0914 37.1824 19.6129 37.4305 19.0645C37.6785 18.5161 37.8355 18.0672 37.9013 17.7177C37.9671 17.3683 38 17.0161 38 16.6613V11.9032C38 9.67742 37.4128 7.97043 36.2383 6.78226C35.0639 5.59409 33.3984 5 31.2418 5C29.5814 5 28.0171 5.2957 26.5491 5.8871V8.46774C28.0678 7.91935 29.5004 7.64516 30.847 7.64516C32.3353 7.64516 33.406 7.94624 34.059 8.54839C34.712 9.15054 35.0689 10.1452 35.1297 11.5323C34.2185 11.4032 33.2769 11.3387 32.3049 11.3387C30.0269 11.3387 28.2399 11.7984 26.9439 12.7177C25.648 13.6371 25 14.914 25 16.5484C25 16.9032 25.0304 17.2634 25.0911 17.629C25.1519 17.9946 25.3113 18.457 25.5695 19.0161C25.8277 19.5753 26.1745 20.0591 26.6098 20.4677C27.0452 20.8763 27.6931 21.2339 28.5537 21.5403C29.4143 21.8468 30.4167 22 31.5607 22ZM31.58 19H31.6237C33.8746 19 35 18.1956 35 16.5867V14.1879C34.2821 14.0723 33.4186 14.0096 32.4096 14C32.0118 14 31.5946 14.0361 31.158 14.1084C30.7214 14.1806 30.2509 14.2938 29.7464 14.448C29.2419 14.6021 28.8247 14.8574 28.4948 15.2139C28.1649 15.5703 28 15.9942 28 16.4855C28 18.1618 29.1933 19 31.58 19ZM45.0201 21V8.31407C46.7122 7.89274 48.3722 7.6718 50 7.65125V5C47.4083 5 44.7416 5.52408 42 6.57225V21H45.0201ZM53 19H56V22H53V19Z" fill="#58D8A4"/>
<path fill-rule="evenodd" clip-rule="evenodd" d="M69 2V5H66V2H69ZM69 18.9878V21.9894C68.8357 21.9965 68.6691 22 68.5 22C67.598 22 66.7647 21.8994 66 21.6982V18.4981C66.2599 18.6423 66.5215 18.7485 66.7846 18.8167C67.2564 18.9389 67.8282 19 68.5 19C68.6733 19 68.84 18.9959 69 18.9878ZM69 18.9878C69.4602 18.9644 69.8653 18.9074 70.2154 18.8167C70.6872 18.6944 71.1538 18.45 71.6154 18.0833C72.0769 17.7167 72.4231 17.1539 72.6538 16.3951C72.8846 15.6363 73 14.6713 73 13.5C73 12.3287 72.8846 11.3637 72.6538 10.6049C72.4231 9.84606 72.0769 9.28333 71.6154 8.91667C71.1538 8.55 70.6872 8.30556 70.2154 8.18333C69.7436 8.06111 69.1718 8 68.5 8C67.8282 8 67.2564 8.06111 66.7846 8.18333C66.3128 8.30556 65.8462 8.55 65.3846 8.91667C64.9231 9.28333 64.5744 9.84861 64.3385 10.6125C64.1128 11.3662 64 12.3287 64 13.5C64 14.6713 64.1154 15.6363 64.3462 16.3951C64.5769 17.1539 64.9231 17.7167 65.3846 18.0833C65.5887 18.2455 65.7939 18.3838 66 18.4981V10H69V18.9878ZM66 21.6982V23H69V21.9894C69.7689 21.9563 70.4849 21.8458 71.148 21.6578C71.9528 21.4297 72.7394 21.0418 73.5078 20.4943C74.2762 19.9468 74.8837 19.1229 75.3302 18.0228C75.7767 16.9227 76 15.5817 76 14C76 12.4183 75.7767 11.0773 75.3302 9.97719C74.8837 8.87706 74.2762 8.05323 73.5078 7.5057C72.7394 6.95817 71.9528 6.57034 71.148 6.34221C70.3432 6.11407 69.4605 6 68.5 6C67.5395 6 66.6568 6.11407 65.852 6.34221C65.0472 6.57034 64.2606 6.95817 63.4922 7.5057C62.7238 8.05323 62.1163 8.87706 61.6698 9.97719C61.2233 11.0773 61 12.4183 61 14C61 15.5817 61.2233 16.9252 61.6698 18.0304C62.1163 19.1255 62.7238 19.9468 63.4922 20.4943C64.2606 21.0418 65.0472 21.4297 65.852 21.6578C65.9011 21.6717 65.9504 21.6852 66 21.6982Z" fill="white"/>
</svg>
