<?xml version="1.0" standalone="no"?>
<!DOCTYPE svg PUBLIC "-//W3C//DTD SVG 20010904//EN"
 "http://www.w3.org/TR/2001/REC-SVG-20010904/DTD/svg10.dtd">
<svg version="1.0" xmlns="http://www.w3.org/2000/svg"
 width="2464.000000pt" height="2464.000000pt" viewBox="0 0 2464.000000 2464.000000"
 preserveAspectRatio="xMidYMid meet">
<metadata>
Created by potrace 1.14, written by Peter Selinger 2001-2017
</metadata>
<g transform="translate(0.000000,2464.000000) scale(0.100000,-0.100000)"
fill="#000000" stroke="none">
<path d="M5757 16788 c-2 -7 0 -21 4 -30 5 -10 5 -19 0 -23 -6 -3 -6 -17 -1
-35 5 -17 6 -30 2 -30 -4 0 -7 -16 -7 -35 0 -19 3 -35 7 -35 4 0 3 -13 -2 -30
-5 -17 -5 -30 0 -30 5 0 5 -13 0 -30 -5 -17 -5 -30 0 -30 5 0 5 -13 0 -30 -5
-17 -5 -30 0 -30 5 0 5 -13 0 -30 -5 -17 -5 -30 0 -30 5 0 5 -13 0 -30 -5 -17
-5 -32 0 -35 5 -3 5 -16 1 -28 -5 -12 -5 -34 0 -49 4 -16 4 -28 -1 -28 -5 0
-5 -13 0 -30 5 -17 5 -30 0 -30 -5 0 -5 -13 0 -30 5 -17 5 -30 0 -30 -5 0 -5
-13 0 -30 5 -17 5 -30 0 -30 -5 0 -5 -13 0 -30 5 -17 5 -30 0 -30 -5 0 -5 -13
0 -30 5 -17 5 -30 0 -30 -13 0 5 -45 19 -46 6 -1 13 -2 16 -4 12 -5 62 -3 78
3 9 3 19 2 22 -3 3 -6 16 -5 31 0 14 6 23 7 21 2 -3 -4 8 -7 24 -7 16 0 29 4
29 8 0 5 4 5 10 2 13 -8 108 -11 116 -3 3 4 16 3 28 -2 12 -4 29 -4 38 1 10 6
19 6 22 0 3 -5 21 -5 41 -1 19 4 35 4 35 0 0 -5 14 -5 30 0 17 5 30 5 30 1 0
-4 20 -5 45 -1 25 4 45 4 45 1 0 -3 14 -6 30 -6 17 0 30 3 30 7 0 5 49 -4 63
-12 1 -1 14 3 30 9 15 6 27 7 27 3 0 -4 14 -7 30 -7 17 0 30 3 30 7 0 3 9 4
20 1 18 -5 26 8 21 39 -2 13 -2 64 -2 143 0 44 0 89 0 100 0 102 0 512 -1 520
0 6 1 15 2 20 1 6 2 38 1 73 l-1 62 -479 0 c-374 0 -480 -3 -484 -12z"/>
<path d="M21153 16162 c-26 -3 -33 -8 -34 -25 0 -12 -1 -39 -2 -60 -1 -20 1
-37 5 -37 4 0 3 -13 -2 -30 -5 -17 -5 -30 0 -30 5 0 5 -13 0 -30 -5 -17 -5
-30 0 -30 5 0 5 -13 0 -30 -5 -17 -5 -30 0 -30 5 0 5 -13 0 -30 -5 -17 -5 -30
0 -30 5 0 5 -13 0 -30 -5 -16 -5 -30 -1 -30 4 0 5 -22 1 -49 -3 -27 -3 -58 1
-70 5 -11 4 -23 -1 -26 -6 -3 -6 -15 0 -30 5 -14 5 -27 0 -30 -5 -3 -5 -18 0
-35 5 -17 5 -30 0 -30 -5 0 -5 -13 0 -30 5 -16 6 -30 2 -30 -4 0 -7 -25 -7
-55 0 -30 3 -55 7 -55 4 0 3 -12 -1 -28 -12 -41 2 -69 38 -74 17 -3 31 -1 31
4 0 5 5 6 11 3 9 -6 278 -10 304 -5 6 2 15 1 20 0 6 -1 33 -1 60 0 67 1 58 1
163 -1 51 -1 95 1 98 4 3 2 19 1 37 -2 18 -4 49 -4 70 0 20 3 39 3 42 -1 2 -4
21 -4 41 -1 26 4 39 13 45 29 5 13 5 22 -1 22 -6 0 -6 9 0 25 6 15 6 26 -1 30
-5 4 -6 11 -3 17 4 6 7 28 7 48 0 20 -3 42 -7 48 -3 6 -2 13 3 17 7 4 7 15 1
30 -6 16 -6 25 0 25 6 0 6 9 0 25 -5 14 -6 25 -2 25 4 0 7 24 7 54 0 30 -3 52
-7 49 -5 -2 -4 6 1 19 5 13 5 33 0 46 -5 13 -5 22 1 22 6 0 6 9 0 25 -5 14 -6
25 -2 25 8 0 8 168 0 176 -3 2 -2 22 2 44 4 22 3 37 -1 34 -5 -3 -5 6 1 20 6
17 6 27 -1 32 -7 4 -7 10 0 18 6 7 6 17 1 26 -5 8 -6 18 -3 23 3 6 -8 8 -26 5
-17 -2 -31 -2 -31 1 0 5 -97 6 -270 1 -36 -1 -69 -1 -75 0 -5 1 -32 1 -60 0
-27 0 -57 -1 -65 -1 -47 1 -173 0 -178 0 -4 -1 -11 0 -17 1 -20 4 -107 2 -112
-3 -2 -3 -17 -2 -31 2 -15 3 -42 5 -59 3z"/>
<path d="M2180 15203 c0 -4 -62 -9 -138 -9 -131 -2 -246 -8 -322 -19 -19 -2
-55 -7 -80 -11 -25 -3 -54 -7 -65 -9 -11 -1 -20 -3 -20 -4 0 -1 -16 -4 -35 -6
-38 -5 -72 -11 -98 -19 -9 -3 -30 -8 -47 -11 -47 -9 -49 -10 -63 -19 -7 -4
-16 -5 -19 -2 -3 3 -12 1 -20 -5 -7 -6 -13 -9 -13 -6 0 3 -42 -9 -94 -28 -52
-18 -97 -30 -100 -27 -3 3 -6 1 -6 -5 0 -5 -6 -10 -13 -10 -7 0 -38 -12 -69
-26 -31 -15 -63 -27 -72 -27 -8 0 -16 -5 -18 -11 -2 -5 -10 -11 -18 -12 -21
-3 -163 -82 -235 -131 -60 -40 -285 -258 -285 -275 0 -5 -6 -16 -13 -23 -22
-22 -97 -136 -97 -147 0 -6 -5 -11 -11 -11 -5 0 -8 -4 -5 -9 3 -5 -1 -14 -9
-21 -8 -7 -12 -16 -9 -21 3 -5 2 -9 -3 -9 -4 0 -14 -12 -20 -27 -97 -219 -148
-357 -138 -374 4 -5 2 -9 -3 -9 -5 0 -9 -6 -9 -12 0 -24 -13 -103 -20 -128 -4
-14 -9 -1347 -10 -2963 l-3 -2937 481 2 482 3 1 217 c1 126 -3 214 -8 211 -5
-4 -6 0 -1 7 10 16 13 230 3 230 -4 0 -5 7 -1 16 9 25 9 393 -1 387 -5 -4 -6
0 -1 7 10 16 13 230 3 230 -4 0 -5 7 -1 16 9 24 9 454 0 454 -4 0 -4 8 0 18 5
9 8 76 7 149 -1 115 1 131 15 127 9 -2 68 -17 131 -33 121 -31 150 -38 215
-47 22 -4 45 -10 51 -15 6 -5 13 -7 15 -4 4 4 57 -2 169 -20 223 -34 642 -38
890 -10 124 15 120 14 295 49 11 3 40 9 65 15 25 7 56 14 69 17 13 3 40 12 59
20 19 8 37 12 40 9 3 -3 11 0 18 5 6 6 20 12 30 15 11 2 37 11 59 21 22 10 45
19 52 20 51 9 365 183 501 276 133 92 310 264 356 347 5 9 15 20 23 24 7 4 13
15 13 22 0 8 5 15 10 15 6 0 10 6 10 14 0 7 6 19 14 25 8 7 23 29 34 49 91
173 113 219 147 302 44 109 105 295 105 320 0 9 3 20 8 24 4 4 7 11 8 14 0 4
3 21 7 37 4 17 9 39 11 50 3 11 12 55 21 98 9 43 17 95 19 116 1 20 5 42 9 47
3 5 8 43 12 84 3 41 8 86 10 100 9 59 28 372 26 430 -1 8 0 40 0 70 1 30 1 60
1 65 0 6 -3 73 -6 150 -4 77 -8 162 -10 189 -8 83 -18 179 -22 216 -3 19 -7
49 -8 65 -2 17 -8 57 -14 90 -6 33 -13 71 -16 85 -2 14 -9 45 -15 70 -5 24 -8
46 -6 49 3 2 0 10 -7 18 -6 7 -8 16 -5 19 3 3 -1 21 -9 40 -8 19 -14 35 -13
36 4 10 -90 309 -111 353 -5 11 -21 49 -36 85 -40 98 -104 228 -143 290 -20
30 -36 57 -36 60 0 3 -25 39 -56 80 -93 124 -213 249 -329 340 -18 14 -37 30
-44 36 -36 33 -233 153 -333 204 -191 95 -419 178 -513 185 -14 1 -34 5 -46 9
-19 6 -54 11 -144 21 -19 2 -53 6 -75 9 -22 3 -96 9 -165 12 -68 3 -128 8
-132 10 -4 3 -8 2 -8 -3z m-15 -962 c4 5 10 7 15 4 5 -3 53 -8 107 -10 94 -5
110 -6 198 -20 68 -11 187 -44 255 -73 70 -29 197 -98 218 -119 7 -7 17 -13
21 -13 4 0 16 -8 27 -17 10 -10 42 -36 69 -58 55 -44 79 -70 142 -154 45 -60
133 -228 133 -254 0 -9 4 -18 9 -21 9 -6 53 -140 54 -163 0 -7 3 -13 7 -13 3
0 6 -8 6 -17 1 -24 11 -71 17 -80 3 -5 8 -24 11 -43 15 -97 18 -114 22 -134 2
-11 6 -41 9 -66 3 -25 8 -59 10 -75 10 -62 17 -204 19 -352 0 -84 5 -153 9
-153 5 0 5 -4 2 -10 -3 -5 -8 -74 -10 -152 -5 -144 -10 -224 -19 -288 -3 -19
-8 -53 -11 -75 -3 -23 -8 -52 -10 -65 -3 -14 -7 -39 -10 -57 -2 -18 -9 -51
-16 -75 -6 -24 -13 -52 -15 -64 -8 -45 -57 -183 -90 -252 -19 -41 -34 -76 -34
-78 0 -2 -21 -36 -46 -75 -52 -82 -156 -190 -229 -240 -27 -19 -52 -37 -55
-40 -3 -3 -43 -26 -90 -52 -118 -63 -276 -118 -385 -133 -27 -3 -59 -8 -70
-10 -31 -6 -244 -25 -275 -25 -8 0 -35 0 -60 0 -25 0 -49 0 -55 0 -5 0 -61 2
-124 5 -108 5 -158 10 -241 21 -19 3 -53 7 -75 10 -22 2 -51 7 -65 10 -14 3
-39 7 -57 10 -47 6 -272 62 -345 86 -35 11 -70 22 -78 24 -8 3 -36 12 -62 21
-43 15 -46 18 -38 40 6 14 6 26 0 29 -6 3 -6 15 0 29 5 13 6 26 3 29 -6 7 -7
157 0 163 3 3 1 19 -3 35 -5 16 -5 29 0 29 5 0 5 13 0 30 -5 17 -6 30 -2 30 8
0 7 68 -1 76 -3 3 -2 17 3 30 6 14 6 26 -1 29 -6 4 -6 13 0 23 6 10 6 23 0 34
-7 12 -6 18 1 18 6 0 8 5 5 11 -9 14 -9 154 0 168 3 6 2 11 -4 11 -6 0 -6 11
-1 30 5 17 5 30 1 30 -4 0 -5 20 -1 44 3 24 3 53 -1 64 -5 12 -4 24 1 27 6 3
6 15 0 30 -6 15 -6 25 0 25 5 0 5 12 0 29 -4 15 -4 34 0 42 5 7 5 20 0 29 -5
9 -5 22 0 30 5 8 5 21 -1 31 -6 11 -5 20 1 24 6 3 6 15 0 30 -6 15 -6 27 0 30
6 3 6 15 0 30 -6 15 -6 27 0 30 5 3 6 15 1 28 -5 12 -5 32 0 44 5 13 4 25 -1
28 -6 3 -6 15 0 30 5 13 5 27 1 30 -5 3 -6 20 -1 38 4 18 3 43 -1 55 -5 12 -4
24 1 27 6 3 6 15 0 30 -6 15 -6 25 0 25 5 0 5 12 0 29 -4 15 -4 34 0 42 5 7 5
20 0 29 -5 9 -5 22 0 30 5 8 5 21 -1 31 -6 11 -5 20 1 24 6 3 6 15 0 30 -6 15
-6 27 0 30 6 3 6 15 0 30 -6 15 -6 27 0 30 5 3 6 15 1 28 -5 12 -5 32 0 44 5
13 4 25 -1 28 -6 3 -6 15 0 30 5 13 5 27 1 29 -5 3 -5 23 -1 44 4 21 3 48 -1
60 -5 12 -4 24 1 27 6 3 6 15 0 30 -5 14 -5 27 0 30 5 3 5 18 0 35 -5 17 -5
30 0 30 5 0 5 13 0 30 -5 17 -5 30 0 30 5 0 5 13 0 30 -5 17 -6 30 -2 30 4 0
7 14 7 30 0 17 -4 30 -8 30 -5 0 -6 4 -2 10 3 5 8 30 10 56 13 152 87 304 195
401 28 25 138 104 142 103 6 -2 43 14 48 20 5 7 141 57 175 65 11 2 40 9 65
16 139 34 252 49 418 54 51 2 96 5 99 8 3 3 16 2 29 -3 14 -6 26 -6 29 1z"/>
<path d="M9979 15206 c-2 -3 -69 -7 -149 -11 -147 -6 -231 -12 -285 -19 -16
-2 -57 -7 -90 -11 -33 -4 -73 -9 -90 -12 -16 -3 -41 -7 -55 -8 -30 -4 -76 -13
-110 -21 -14 -3 -36 -8 -50 -11 -14 -2 -45 -9 -70 -14 -25 -6 -52 -12 -60 -14
-8 -1 -35 -9 -60 -16 -25 -7 -50 -13 -57 -15 -30 -6 -221 -67 -248 -79 -16 -7
-43 -17 -60 -21 -16 -4 -46 -15 -65 -24 l-35 -18 1 -408 c1 -225 2 -410 3
-411 0 -1 52 16 114 36 151 51 294 94 357 106 8 2 15 4 15 5 0 1 8 3 18 5 11
2 62 13 115 24 176 37 241 48 332 57 30 2 66 6 80 9 169 27 535 22 750 -11 25
-4 55 -7 68 -8 12 0 22 -5 22 -9 0 -5 6 -7 12 -5 12 4 146 -33 235 -65 42 -16
126 -60 196 -104 72 -45 236 -226 237 -260 0 -5 9 -19 20 -33 11 -14 20 -33
20 -42 0 -10 5 -18 10 -18 6 0 10 -8 10 -18 0 -10 4 -22 9 -27 13 -14 68 -199
81 -270 5 -33 12 -71 15 -85 9 -41 16 -111 20 -175 1 -33 4 -67 6 -75 5 -19
-16 -18 -211 6 -44 5 -74 8 -235 20 -186 13 -596 19 -730 9 -167 -11 -357 -32
-389 -41 -10 -4 -37 -8 -60 -11 -46 -5 -81 -11 -81 -13 0 -1 -13 -4 -30 -6
-16 -3 -64 -14 -105 -25 -41 -11 -84 -22 -95 -23 -11 -2 -20 -4 -20 -5 0 -2
-7 -4 -15 -6 -139 -30 -434 -163 -584 -264 -38 -25 -78 -50 -88 -56 -10 -5
-18 -13 -18 -17 0 -5 -5 -8 -10 -8 -18 0 -199 -174 -260 -249 -96 -119 -206
-321 -235 -431 -2 -8 -11 -40 -20 -70 -9 -30 -18 -70 -21 -89 -2 -19 -6 -37
-9 -41 -2 -3 -7 -36 -10 -72 -4 -35 -8 -78 -11 -94 -6 -38 -6 -43 -2 -86 3
-21 1 -38 -4 -38 -4 0 -3 -11 2 -25 6 -15 6 -26 -1 -30 -5 -4 -6 -11 -2 -18 3
-6 8 -38 9 -71 4 -102 21 -223 40 -291 8 -27 15 -52 15 -55 7 -33 44 -140 63
-180 11 -25 21 -48 22 -52 1 -5 3 -11 4 -15 1 -5 2 -11 1 -15 0 -5 4 -8 9 -8
6 0 10 -5 10 -11 0 -34 143 -275 210 -354 70 -84 204 -207 280 -257 74 -49
293 -167 311 -168 4 0 24 -8 45 -17 22 -9 44 -18 49 -20 6 -1 57 -19 114 -38
57 -20 114 -37 125 -40 12 -2 21 -4 21 -5 0 -2 22 -7 60 -15 17 -3 37 -8 46
-11 9 -2 32 -7 50 -9 19 -3 45 -7 59 -10 48 -10 85 -15 130 -20 25 -2 68 -7
95 -10 28 -3 89 -7 136 -9 48 -2 92 -7 98 -10 6 -4 11 -3 11 2 0 10 42 8 59
-3 6 -3 11 -2 11 4 0 7 8 7 25 1 14 -5 25 -6 25 -2 0 10 42 8 58 -2 7 -4 12
-4 12 1 0 4 37 9 83 10 45 1 105 4 132 7 28 3 77 8 110 11 33 3 71 8 85 11 24
5 45 9 100 18 14 3 25 5 25 6 0 1 9 3 20 5 60 10 88 16 165 39 47 13 99 29
115 36 17 6 37 13 46 15 9 2 37 13 62 24 25 12 49 21 53 21 15 0 274 134 274
142 0 4 5 8 11 8 11 0 79 48 91 65 4 5 8 6 8 2 0 -11 168 158 205 206 59 77
133 192 129 199 -3 4 -2 8 3 8 7 0 77 134 78 150 1 3 11 28 24 55 21 47 90
242 96 275 2 8 4 15 5 15 2 0 9 36 14 80 2 22 5 40 6 40 3 0 9 60 13 121 3 34
7 67 11 72 3 6 2 13 -4 17 -6 4 -8 11 -4 16 8 14 9 113 0 127 -3 6 -2 13 3 17
7 3 7 15 1 30 -6 15 -6 27 0 30 5 3 6 15 1 28 -5 12 -5 32 0 44 5 13 4 25 -1
28 -6 3 -6 15 0 30 5 13 5 27 1 29 -5 3 -5 23 -1 44 4 21 3 48 -1 60 -5 12 -4
24 1 27 6 3 6 15 0 30 -5 14 -5 27 0 30 5 3 5 18 0 35 -5 17 -5 30 0 30 5 0 5
13 0 30 -5 17 -6 30 -2 30 4 0 7 25 7 55 0 30 -3 55 -7 55 -4 0 -3 14 2 30 5
17 5 30 0 30 -5 0 -5 13 0 30 5 17 5 30 0 30 -5 0 -5 13 0 30 5 17 5 30 0 30
-5 0 -5 13 0 30 5 17 5 30 0 30 -5 0 -5 13 0 30 5 17 5 30 0 30 -5 0 -5 13 0
30 5 17 5 30 0 30 -5 0 -5 13 0 30 5 17 5 30 0 30 -5 0 -5 13 0 30 5 17 5 30
0 30 -5 0 -5 13 0 30 5 17 6 30 2 30 -8 0 -7 74 1 87 3 5 2 15 -3 23 -5 8 -5
21 0 30 5 9 5 22 0 30 -5 8 -5 21 0 30 5 9 5 22 0 30 -5 8 -5 21 0 31 5 9 7
19 3 22 -3 4 -7 53 -9 109 -6 186 -30 388 -62 518 -5 19 -9 38 -10 43 -1 4 -2
8 -3 10 -2 8 -9 36 -14 62 -10 49 -76 237 -101 289 -13 28 -24 53 -24 58 0 13
-99 187 -136 241 -19 26 -34 50 -34 53 0 3 -6 11 -12 18 -7 7 -22 25 -33 41
-30 43 -234 248 -280 281 -22 16 -42 31 -45 35 -3 3 -32 24 -66 46 -132 90
-370 202 -492 234 -29 7 -52 17 -52 21 0 5 -4 7 -9 4 -5 -4 -21 -2 -35 4 -28
10 -261 57 -286 57 -8 0 -33 3 -55 7 -92 14 -127 17 -263 21 -78 2 -146 6
-151 9 -4 3 -10 4 -12 2z m791 -2900 c187 -14 239 -18 265 -23 17 -2 52 -7 80
-10 85 -9 84 -7 84 -143 0 -67 3 -125 6 -130 3 -6 3 -10 -2 -10 -7 0 -8 -106
-3 -425 2 -154 -21 -335 -43 -335 -6 0 -8 -3 -4 -6 15 -16 -68 -163 -130 -229
-61 -66 -222 -168 -283 -180 -11 -2 -25 -7 -30 -10 -15 -10 -140 -45 -175 -50
-16 -2 -43 -6 -60 -9 -67 -12 -126 -17 -248 -22 -71 -2 -131 -5 -135 -5 -4 -1
-9 -1 -12 0 -3 1 -50 4 -105 6 -112 5 -195 11 -240 20 -63 11 -100 18 -110 21
-5 2 -22 5 -36 8 -44 10 -142 43 -194 67 -27 12 -53 23 -57 23 -4 1 -13 7 -19
14 -7 6 -17 12 -22 12 -21 0 -207 163 -207 182 0 4 -13 26 -28 50 -27 40 -60
114 -67 148 -2 8 -8 35 -15 60 -16 58 -21 251 -8 315 5 28 10 56 11 63 0 6 4
12 9 12 4 0 8 11 8 25 0 14 3 25 8 25 4 0 14 15 21 33 48 109 216 259 362 326
68 30 204 75 264 86 11 2 56 13 99 24 86 23 98 26 196 42 92 15 118 19 179 24
30 3 57 7 59 9 4 5 511 -2 582 -8z"/>
<path d="M15687 15194 c-1 -1 -47 -5 -102 -9 -100 -6 -127 -8 -240 -20 -33 -3
-80 -8 -105 -11 -52 -5 -293 -41 -330 -49 -14 -3 -36 -7 -50 -9 -14 -3 -45 -8
-70 -12 -25 -5 -49 -9 -55 -10 -5 0 -21 -4 -35 -7 -14 -4 -36 -9 -50 -11 -14
-2 -65 -14 -115 -25 -49 -12 -99 -23 -110 -26 -30 -5 -62 -14 -135 -34 -25 -8
-49 -14 -55 -16 -38 -8 -80 -20 -145 -40 -41 -12 -88 -26 -105 -30 -34 -9 -34
-10 -55 -18 -22 -8 -213 -71 -225 -73 -5 -1 -23 -8 -40 -15 -16 -6 -37 -13
-45 -15 -8 -2 -30 -9 -50 -17 -19 -8 -57 -24 -85 -35 -27 -11 -49 -24 -48 -29
3 -16 6 -437 4 -610 0 -7 0 -114 0 -238 0 -124 0 -233 0 -242 0 -10 0 -65 0
-123 0 -58 0 -112 0 -120 0 -52 0 -547 0 -557 0 -7 0 -114 0 -238 0 -124 0
-233 0 -242 0 -15 0 -208 0 -238 0 -40 0 -704 0 -720 -1 -32 0 -208 1 -214 0
-3 0 -10 -1 -16 -1 -5 -2 -44 -1 -85 0 -41 1 -82 1 -90 0 -8 0 -61 -1 -118 0
-57 2 -107 5 -112 4 -6 1 -10 -5 -10 -6 0 -9 -4 -5 -9 3 -5 5 -63 5 -128 0
-65 0 -198 -1 -297 0 -100 4 -183 9 -188 6 -6 93 -9 203 -8 107 1 201 1 209 1
8 0 80 0 160 0 80 0 150 0 155 0 52 -1 194 -2 210 -2 l21 1 -1 2030 0 2030
110 25 c61 14 120 28 133 30 12 3 32 7 45 10 12 3 36 8 52 10 17 3 37 8 45 10
8 2 33 7 55 10 22 4 51 9 65 12 14 2 39 6 55 8 17 2 41 6 55 9 13 3 42 8 65
11 22 3 47 8 55 10 8 2 42 7 75 10 33 4 76 9 95 11 52 7 116 13 200 20 41 3
93 7 115 9 22 2 114 7 205 10 157 7 194 15 171 38 -5 5 -5 22 -1 38 5 17 5 31
-1 35 -7 4 -6 10 0 18 6 7 6 17 1 26 -5 8 -6 18 -3 24 9 14 9 67 0 73 -4 2 -3
13 3 23 7 13 7 21 0 25 -6 4 -7 13 -1 24 6 10 6 23 1 31 -5 8 -6 18 -4 22 8
13 8 103 1 115 -4 7 -3 14 3 18 7 4 7 12 0 26 -6 10 -7 19 -3 19 9 0 8 163 -1
178 -3 6 -2 13 4 17 6 4 7 12 1 24 -6 10 -6 23 -1 31 5 8 5 21 -1 31 -8 15
-26 17 -160 16 -83 -1 -151 -3 -152 -3z"/>
<path d="M5775 14877 c-14 -11 -18 -28 -19 -75 -1 -34 2 -62 6 -62 4 0 3 -13
-2 -30 -5 -17 -5 -30 0 -30 5 0 5 -13 0 -29 -4 -15 -4 -34 0 -42 5 -7 5 -20 0
-29 -5 -9 -5 -22 0 -30 5 -8 5 -21 0 -30 -5 -9 -5 -22 0 -30 5 -8 5 -21 0 -30
-5 -9 -5 -22 0 -30 4 -7 6 -19 3 -26 -7 -20 -9 -224 -1 -224 4 0 3 -13 -2 -30
-5 -18 -5 -30 0 -30 6 0 6 -10 0 -25 -6 -15 -6 -27 0 -30 6 -3 6 -15 0 -30 -6
-15 -6 -27 0 -30 6 -3 6 -15 0 -30 -6 -15 -6 -27 0 -30 5 -3 7 -11 4 -18 -8
-23 -10 -107 -1 -107 4 0 6 -4 2 -10 -8 -13 -10 -234 -1 -248 3 -6 2 -13 -3
-17 -7 -3 -7 -15 -1 -29 5 -13 6 -27 3 -30 -9 -8 -9 -86 -1 -86 4 0 3 -11 -2
-25 -6 -15 -6 -27 0 -30 5 -3 7 -12 3 -21 -8 -21 -9 -264 -1 -264 4 0 3 -13
-2 -30 -5 -17 -5 -30 0 -30 5 0 7 -6 5 -12 -9 -22 -11 -108 -4 -108 4 0 4 -13
-1 -30 -5 -17 -5 -30 0 -30 5 0 5 -13 0 -30 -5 -17 -5 -30 0 -30 5 0 5 -13 0
-30 -5 -17 -5 -30 0 -30 5 0 5 -13 0 -30 -5 -17 -5 -30 0 -30 5 0 5 -13 0 -30
-5 -17 -5 -30 0 -30 5 0 5 -13 0 -30 -5 -16 -6 -30 -2 -30 4 0 7 -18 7 -40 0
-22 -2 -40 -5 -40 -7 0 -4 -69 3 -76 3 -3 2 -17 -3 -30 -6 -14 -6 -26 0 -29 6
-4 7 -13 1 -24 -6 -10 -6 -23 -1 -31 5 -8 5 -21 0 -30 -5 -9 -4 -23 1 -32 6
-10 6 -19 0 -23 -7 -3 -7 -15 -1 -30 6 -15 6 -27 0 -30 -6 -3 -6 -15 0 -30 6
-15 6 -27 0 -30 -5 -3 -6 -15 -1 -28 5 -12 5 -32 0 -44 -5 -13 -4 -25 1 -28 6
-3 6 -15 0 -30 -6 -15 -6 -27 1 -30 5 -4 7 -11 4 -16 -9 -13 -9 -214 -1 -227
3 -6 2 -13 -3 -17 -7 -3 -7 -15 -1 -29 5 -13 6 -27 3 -30 -9 -8 -9 -86 -1 -86
4 0 3 -11 -2 -25 -6 -15 -6 -26 1 -30 5 -4 6 -11 3 -17 -8 -12 -8 -267 -1
-275 3 -3 2 -16 -3 -29 -5 -13 -6 -26 0 -29 5 -3 5 -18 0 -35 -5 -18 -5 -32 1
-35 5 -4 5 -13 0 -24 -6 -10 -6 -23 -1 -31 5 -8 5 -21 0 -30 -5 -9 -5 -22 0
-30 5 -8 5 -21 0 -30 -5 -9 -5 -22 0 -30 5 -8 5 -21 0 -30 -5 -9 -5 -22 0 -30
5 -8 5 -21 0 -30 -5 -9 -5 -22 0 -30 5 -8 5 -21 0 -30 -5 -9 -5 -22 0 -30 5
-8 5 -21 0 -30 -5 -9 -5 -22 0 -30 4 -7 6 -19 3 -26 -7 -20 -9 -224 -1 -224 4
0 3 -13 -2 -30 -5 -18 -5 -30 0 -30 6 0 6 -10 0 -25 -6 -15 -6 -27 0 -30 6 -3
6 -15 0 -30 -6 -15 -6 -27 0 -30 6 -3 6 -15 0 -30 -6 -15 -6 -27 0 -30 5 -3 7
-11 4 -18 -6 -18 -10 -107 -4 -107 7 0 4 -89 -3 -96 -3 -4 -2 -17 3 -30 5 -13
6 -26 1 -28 -14 -9 0 -56 20 -67 13 -6 19 -6 19 0 0 7 9 7 25 1 17 -6 25 -6
25 1 0 6 5 7 11 3 16 -9 59 -11 84 -3 11 3 29 3 40 -1 11 -4 28 -3 38 2 9 5
17 5 17 1 0 -4 34 -8 75 -8 41 0 75 4 75 8 0 5 5 5 11 2 15 -10 79 -12 79 -3
0 4 11 3 25 -2 16 -6 25 -6 25 0 0 5 9 6 22 1 12 -4 37 -5 55 -1 18 5 33 5 33
1 0 -8 76 -4 92 5 6 4 9 3 5 -2 -6 -10 104 -11 121 0 6 3 13 2 16 -3 3 -5 15
-7 26 -4 17 5 24 19 22 44 -2 13 -4 412 -4 454 1 12 1 294 1 315 0 8 0 132 0
275 0 143 0 269 0 280 0 47 0 401 0 415 0 8 0 150 0 315 0 165 0 307 0 315 0
8 0 152 0 320 0 168 0 312 0 320 0 11 0 475 0 560 0 8 0 61 1 118 0 57 -2 107
-5 112 -4 6 -1 10 5 10 6 0 9 4 5 9 -3 5 -5 63 -5 128 0 65 0 219 0 343 -1
124 -1 232 -1 240 0 8 0 120 1 248 0 129 -2 238 -5 242 -3 5 -1 11 4 14 15 9
1 44 -20 49 -10 3 -19 1 -19 -4 0 -5 -11 -4 -25 1 -17 6 -25 6 -25 -1 0 -6 -5
-7 -11 -3 -16 9 -59 11 -84 3 -11 -3 -29 -3 -40 1 -11 4 -28 3 -37 -2 -10 -5
-18 -5 -18 0 0 8 -69 7 -77 -2 -3 -3 -15 -1 -27 4 -13 4 -29 4 -36 0 -8 -5
-18 -6 -23 -3 -14 9 -96 9 -90 1 2 -5 -7 -4 -21 2 -16 6 -27 6 -31 -1 -4 -5
-11 -6 -17 -3 -15 10 -78 11 -78 2 0 -4 -11 -3 -25 2 -16 6 -25 6 -25 -1 0 -6
-7 -6 -17 -1 -19 8 -81 7 -90 -2 -3 -2 -15 -1 -27 4 -13 4 -29 4 -37 0 -8 -5
-16 -5 -19 1 -4 5 -14 3 -25 -4z"/>
<path d="M21847 14884 c-3 -3 -48 -8 -99 -9 -93 -4 -201 -12 -248 -20 -14 -2
-45 -7 -70 -10 -60 -7 -195 -32 -195 -35 0 -1 -9 -3 -20 -5 -35 -6 -68 -14
-140 -35 -38 -12 -77 -23 -85 -25 -79 -19 -404 -167 -443 -202 -10 -10 -20
-16 -21 -14 -3 9 -208 -126 -214 -141 -2 -4 -8 -8 -14 -8 -13 0 -127 -99 -184
-160 -41 -44 -85 -96 -134 -161 -42 -55 -140 -218 -140 -234 0 -8 -4 -15 -9
-15 -5 0 -19 -24 -31 -52 -12 -29 -34 -78 -47 -108 -39 -84 -114 -310 -108
-320 4 -6 2 -10 -3 -10 -5 0 -9 -6 -9 -12 0 -7 -7 -40 -16 -73 -9 -33 -18 -76
-21 -95 -3 -19 -8 -46 -12 -60 -3 -14 -7 -34 -9 -45 -1 -11 -6 -38 -9 -60 -15
-93 -33 -276 -41 -416 -2 -41 -4 -76 -5 -79 -2 -3 -1 -9 0 -15 2 -8 1 -84 -1
-150 -1 -24 12 -353 15 -380 2 -16 7 -59 10 -95 6 -59 11 -95 21 -170 2 -14 4
-25 5 -25 1 0 3 -17 6 -37 8 -69 50 -255 76 -338 29 -96 58 -182 68 -205 46
-108 130 -286 139 -295 4 -3 17 -25 30 -50 22 -40 78 -125 103 -155 4 -5 22
-28 39 -50 76 -100 232 -242 344 -313 28 -17 55 -36 62 -42 7 -5 17 -10 23
-10 5 0 10 -4 10 -9 0 -5 8 -11 18 -15 9 -3 33 -15 52 -26 55 -33 89 -50 96
-49 4 0 10 -3 13 -8 14 -21 229 -112 381 -161 79 -25 85 -29 87 -56 1 -16 4
-35 7 -43 3 -7 1 -13 -4 -13 -5 0 -5 -13 0 -30 5 -16 6 -30 2 -30 -4 0 -7 -16
-7 -35 0 -19 3 -35 7 -35 4 0 3 -13 -2 -30 -5 -17 -5 -30 0 -30 5 0 5 -13 0
-30 -5 -17 -5 -30 0 -30 5 0 5 -13 0 -30 -5 -19 -5 -30 1 -30 6 0 8 -4 5 -9
-3 -5 8 -11 25 -13 16 -3 32 -1 34 3 3 4 20 3 39 -1 19 -4 37 -5 40 -3 7 8
106 9 106 2 0 -4 17 -3 38 0 20 4 54 4 75 1 20 -4 37 -4 37 0 0 4 18 4 40 0
22 -4 58 -4 80 0 22 4 40 4 40 0 0 -4 18 -4 41 0 22 4 56 4 75 0 19 -4 36 -4
39 0 3 4 21 4 40 0 20 -4 38 -4 41 1 3 5 10 7 15 3 5 -3 33 -6 62 -6 93 0 90
-1 83 27 -4 14 -3 25 1 25 5 0 8 11 8 25 0 14 -3 25 -7 25 -4 0 -3 11 2 25 6
17 6 25 -1 25 -6 0 -7 5 -4 11 12 18 9 133 -2 154 -13 22 -22 23 -34 3 -5 -7
-9 -8 -9 -2 0 11 -63 10 -82 -2 -6 -4 -9 -3 -5 2 3 5 -10 9 -28 9 -18 0 -31
-4 -27 -9 3 -5 0 -6 -7 -2 -6 4 -65 10 -129 12 -137 6 -181 9 -242 18 -25 3
-61 8 -80 11 -32 4 -81 12 -179 30 -19 3 -38 8 -43 11 -5 3 -21 7 -36 10 -44
8 -47 10 -50 45 -1 18 -5 35 -7 37 -2 3 0 13 5 23 7 11 7 20 0 24 -6 3 -6 15
0 30 6 15 6 27 0 30 -6 3 -6 15 0 30 6 15 6 27 0 30 -6 4 -7 13 -1 24 6 10 6
23 1 31 -5 8 -5 21 0 30 5 9 4 23 -1 32 -6 10 -6 19 0 23 7 3 7 15 1 30 -6 15
-6 27 0 30 6 3 6 15 0 30 -6 15 -6 27 0 30 5 3 6 15 1 28 -5 12 -5 32 0 44 5
13 4 25 -1 28 -6 3 -6 15 0 30 5 13 5 27 1 29 -5 3 -5 23 -1 45 4 22 4 45 -1
52 -4 7 -4 20 1 29 5 9 5 22 0 30 -5 8 -5 21 0 30 5 9 5 22 0 29 -4 8 -4 27 0
42 5 16 6 29 2 29 -5 0 -7 61 -3 78 1 1 27 -11 59 -26 58 -29 192 -76 247 -87
67 -13 101 -18 123 -17 12 0 22 -3 22 -7 0 -6 93 -13 207 -15 29 -1 53 -5 53
-9 0 -4 7 -4 17 1 9 5 28 6 42 3 14 -4 37 -5 51 -1 14 4 33 3 42 -2 10 -5 19
-4 23 2 5 8 11 7 21 -1 10 -8 14 -8 14 0 0 15 22 10 36 -8 7 -9 9 -25 3 -43
-4 -16 -4 -28 1 -28 6 0 6 -10 0 -25 -6 -17 -6 -25 1 -25 6 0 7 -6 0 -17 -5
-10 -5 -26 0 -40 5 -14 5 -23 -1 -23 -6 0 -6 -9 0 -25 5 -14 6 -25 2 -25 -6 0
-7 -163 -2 -180 6 -15 4 -47 -2 -62 -5 -9 -3 -20 2 -23 7 -4 7 -11 2 -18 -5
-7 -6 -21 -2 -32 4 -11 4 -30 -1 -42 -5 -15 -5 -23 2 -23 6 0 6 -7 -1 -19 -7
-14 -7 -22 0 -26 7 -4 7 -11 2 -18 -5 -7 -6 -21 -2 -32 4 -11 3 -30 -1 -43 -6
-14 -5 -31 1 -42 7 -13 7 -21 0 -25 -7 -4 -7 -12 0 -25 7 -13 7 -21 0 -25 -7
-4 -6 -14 2 -28 6 -12 11 -24 10 -27 -1 -3 11 -4 26 -4 48 2 201 15 219 18 10
2 45 7 78 12 33 4 62 8 65 9 14 3 97 18 110 20 9 0 21 4 28 9 6 4 17 4 22 1 6
-3 10 -1 10 5 0 6 4 9 8 6 16 -10 279 74 391 125 128 58 141 64 141 72 0 4 6
7 14 7 11 0 74 34 171 93 18 11 74 49 160 108 93 64 242 213 304 303 8 12 17
23 21 26 20 17 140 221 140 238 0 6 4 12 9 14 25 9 159 349 196 498 23 94 38
159 41 180 5 32 12 65 14 65 1 0 3 12 5 26 2 15 6 42 9 60 2 19 8 61 11 94 4
33 8 70 10 83 7 40 16 164 19 257 2 50 5 95 6 100 1 6 1 12 0 15 -6 15 -5 60
2 60 4 0 4 10 -1 23 -5 14 -5 30 0 40 7 11 6 17 0 17 -7 0 -7 8 -1 25 5 14 6
25 2 25 -4 0 -8 51 -8 113 -1 119 -9 226 -25 347 -6 41 -12 93 -15 115 -3 22
-7 47 -10 54 -3 8 -7 33 -10 55 -6 48 -12 81 -15 81 -1 0 -3 9 -4 20 -1 11 -9
44 -18 73 -9 28 -14 52 -11 52 3 0 0 8 -5 18 -6 11 -12 30 -15 43 -5 27 -52
164 -85 249 -30 76 -123 262 -138 278 -7 7 -13 19 -13 27 0 7 -4 15 -8 17 -4
2 -19 21 -32 43 -26 43 -36 56 -62 86 -10 10 -18 22 -18 27 0 9 -44 59 -118
136 -72 74 -163 147 -272 220 -47 31 -90 60 -97 66 -7 5 -19 10 -28 10 -8 0
-15 5 -15 10 0 6 -6 10 -14 10 -8 0 -16 3 -18 8 -3 6 -174 95 -188 97 -3 0
-23 9 -45 19 -92 42 -155 66 -155 60 0 -3 -9 0 -19 6 -17 9 -167 52 -226 65
-28 7 -137 27 -155 30 -31 4 -116 17 -140 21 -38 6 -177 16 -250 18 -36 1 -71
5 -78 9 -6 5 -12 5 -12 0 0 -4 -11 -8 -25 -8 -14 0 -25 2 -25 5 0 3 -9 6 -20
6 -11 0 -20 -3 -20 -6 0 -9 -44 -7 -51 3 -3 4 -8 4 -12 1z m95 -644 c14 5 29
6 31 3 3 -2 52 -6 109 -8 56 -3 150 -12 208 -20 58 -9 116 -18 128 -20 40 -6
185 -56 237 -82 183 -92 348 -224 422 -339 7 -10 23 -35 35 -54 72 -111 158
-351 188 -522 5 -29 11 -62 14 -74 2 -12 7 -43 10 -70 3 -27 8 -69 11 -94 11
-89 17 -177 19 -275 1 -56 6 -106 10 -113 4 -7 3 -12 -1 -12 -9 0 -9 -20 0
-83 3 -15 1 -30 -4 -33 -5 -2 -4 -15 1 -28 5 -13 6 -27 3 -30 -3 -3 -7 -50 -9
-103 -10 -331 -65 -654 -140 -830 -8 -17 -14 -34 -14 -37 0 -26 -100 -204
-149 -266 -39 -47 -119 -130 -127 -130 -3 0 -12 -7 -21 -15 -23 -24 -131 -95
-142 -95 -6 0 -11 -4 -11 -9 0 -5 -20 -17 -45 -28 -25 -10 -45 -21 -45 -24 0
-4 -20 -13 -45 -20 -25 -7 -45 -17 -45 -21 0 -4 -3 -7 -7 -6 -5 1 -46 -8 -93
-21 -47 -13 -98 -25 -115 -27 -46 -6 -90 -12 -90 -14 0 -1 -29 -4 -65 -6 -36
-3 -76 -6 -90 -7 -20 -2 -25 3 -25 20 0 12 -4 25 -7 28 -4 4 -3 18 2 31 5 13
6 25 2 28 -9 5 -7 59 2 75 4 5 2 13 -4 16 -7 4 -8 11 -2 18 5 7 6 21 2 32 -4
11 -4 30 1 43 5 14 5 22 -2 22 -6 0 -6 7 1 19 7 14 7 22 -1 27 -7 4 -7 10 -1
16 7 7 7 19 2 33 -5 13 -6 25 -4 28 9 9 10 71 2 89 -5 9 -4 19 2 23 6 4 6 15
0 30 -6 16 -6 25 0 25 6 0 6 9 0 25 -6 15 -6 27 0 30 6 3 6 15 0 30 -6 16 -6
25 0 25 6 0 6 9 0 25 -5 14 -6 25 -2 25 9 0 8 58 -1 66 -3 4 -2 15 3 25 7 12
7 20 0 24 -7 4 -7 12 -1 23 6 10 6 23 0 34 -6 12 -6 18 0 18 7 0 7 9 1 25 -5
14 -6 25 -2 25 8 0 8 57 0 65 -3 3 -2 23 2 44 4 22 3 46 -2 54 -5 9 -4 18 1
22 7 4 7 15 1 30 -6 16 -6 25 0 25 6 0 6 9 0 25 -6 15 -6 27 0 30 6 3 6 15 0
30 -6 16 -6 25 0 25 6 0 6 9 0 25 -5 14 -6 25 -2 25 9 0 8 58 -1 66 -3 4 -2
15 3 25 7 12 7 20 0 24 -6 4 -7 13 -1 23 6 11 6 24 0 35 -7 11 -7 17 0 17 7 0
7 8 1 25 -5 14 -6 25 -2 25 6 0 7 54 2 70 -6 15 -4 47 2 62 5 9 3 20 -2 23 -7
4 -7 11 -2 18 5 7 6 21 2 32 -4 11 -4 30 1 43 5 14 5 22 -2 22 -6 0 -6 7 1 19
7 14 7 22 -1 27 -7 4 -7 10 -1 16 7 7 7 19 2 33 -5 13 -6 25 -4 28 9 8 9 81 1
94 -4 6 -3 14 2 18 7 4 7 15 1 30 -6 16 -6 25 0 25 6 0 6 9 0 25 -6 17 -6 25
1 25 6 0 7 5 4 11 -9 13 -10 117 -2 125 3 3 2 17 -3 30 -6 15 -6 24 0 24 6 0
6 9 0 25 -6 17 -6 25 1 25 6 0 7 5 3 11 -6 10 -9 119 -4 144 1 6 1 15 0 20 -4
22 -1 107 4 112 3 4 1 12 -5 19 -6 8 -7 14 0 18 6 4 6 17 -1 36 -8 23 -13 28
-26 21 -9 -5 -26 -5 -39 0 -14 5 -23 5 -23 -1 0 -5 -12 -5 -27 -1 -16 4 -41 4
-58 1 -16 -3 -45 -3 -62 1 -18 4 -33 4 -33 0 0 -7 -109 -6 -117 2 -3 3 -16 2
-29 -3 -13 -5 -26 -6 -29 0 -3 5 -18 5 -35 0 -17 -5 -30 -5 -30 0 0 5 -13 5
-30 0 -16 -5 -30 -5 -30 -2 0 4 -30 5 -66 2 -36 -3 -68 -2 -70 2 -3 4 -15 3
-28 -2 -13 -5 -27 -6 -30 -3 -7 7 -76 10 -76 3 0 -3 -28 -4 -61 -2 -61 3 -61
3 -57 -23 3 -14 2 -25 -1 -25 -3 0 -6 -16 -6 -35 0 -19 3 -35 7 -35 4 0 3 -13
-2 -30 -5 -17 -5 -30 0 -30 5 0 5 -13 0 -30 -5 -17 -5 -30 0 -30 5 0 5 -13 0
-30 -5 -17 -5 -30 0 -30 5 0 5 -13 0 -30 -5 -17 -5 -30 0 -30 5 0 5 -13 0 -30
-5 -16 -5 -30 0 -30 4 0 5 -15 1 -32 -4 -18 -4 -45 0 -60 4 -16 3 -28 -1 -28
-5 0 -5 -13 0 -30 5 -16 6 -30 2 -30 -8 0 -7 -68 1 -76 3 -3 2 -17 -3 -30 -6
-14 -6 -26 1 -29 6 -4 6 -13 0 -23 -6 -10 -6 -23 0 -34 6 -12 6 -18 0 -18 -6
0 -6 -11 -1 -30 5 -17 5 -30 0 -30 -5 0 -5 -13 0 -30 5 -17 5 -30 0 -30 -5 0
-5 -13 0 -30 5 -17 5 -30 0 -30 -5 0 -5 -13 0 -30 5 -19 5 -30 -1 -30 -6 0 -7
-5 -3 -11 3 -6 6 -80 6 -164 0 -84 -3 -158 -6 -164 -4 -6 -3 -11 3 -11 6 0 6
-11 1 -30 -5 -17 -5 -30 0 -30 5 0 5 -13 0 -30 -5 -17 -5 -30 0 -30 5 0 5 -13
0 -30 -5 -17 -5 -30 0 -30 5 0 5 -13 0 -30 -5 -17 -5 -30 0 -30 5 0 5 -13 0
-30 -5 -16 -5 -30 -1 -30 4 0 5 -22 1 -49 -3 -27 -3 -58 1 -70 5 -11 4 -23 -1
-26 -6 -3 -6 -15 0 -30 5 -14 5 -27 0 -30 -5 -3 -5 -18 0 -35 5 -17 5 -30 0
-30 -5 0 -5 -13 0 -30 5 -17 5 -30 0 -30 -5 0 -5 -12 -1 -28 5 -15 5 -37 0
-49 -5 -13 -4 -25 1 -28 6 -3 6 -15 0 -30 -6 -15 -6 -27 0 -30 6 -3 6 -15 0
-30 -6 -15 -6 -27 1 -30 6 -4 6 -13 0 -23 -5 -9 -6 -23 -1 -32 5 -9 5 -22 0
-30 -5 -8 -5 -21 1 -31 6 -11 5 -20 -1 -24 -6 -3 -6 -15 0 -30 6 -15 6 -27 0
-30 -5 -3 -6 -15 0 -29 4 -12 4 -29 0 -36 -5 -8 -4 -22 1 -31 6 -11 5 -20 -1
-24 -6 -3 -6 -15 0 -30 6 -15 6 -27 0 -30 -5 -3 -6 -15 -1 -28 4 -12 6 -28 4
-34 -6 -16 -33 -17 -33 -1 0 6 -3 9 -6 5 -6 -6 -17 1 -134 87 -69 52 -180 166
-180 186 0 6 -4 10 -10 10 -5 0 -10 7 -10 15 0 8 -3 15 -8 15 -8 0 -10 3 -65
117 -34 68 -80 189 -92 241 -2 9 -14 52 -25 96 -12 43 -19 81 -16 83 3 3 1 13
-4 23 -9 16 -15 50 -24 130 -3 19 -7 55 -10 80 -14 114 -17 164 -20 292 -3 75
-7 142 -11 148 -3 5 -2 10 4 10 7 0 7 8 2 23 -5 13 -5 30 -1 37 5 8 4 22 -1
32 -5 10 -6 18 -2 18 4 0 8 44 9 98 1 108 12 294 19 331 2 14 7 47 10 75 3 28
8 58 10 66 3 14 13 65 20 115 2 11 4 21 4 23 1 1 2 5 3 10 24 112 74 255 123
354 96 192 194 301 374 413 9 6 18 13 21 16 6 8 195 100 213 103 6 2 20 6 30
9 44 17 53 20 67 22 8 1 42 8 75 15 33 7 75 14 93 16 17 2 49 6 70 9 20 3 84
7 141 9 57 3 106 7 108 10 3 2 15 1 26 -3 12 -5 34 -5 49 -1z"/>
<path d="M17003 10722 c-33 -3 -63 -35 -43 -47 6 -4 6 -15 0 -30 -5 -14 -6
-25 -1 -25 4 0 5 -20 1 -44 -3 -24 -3 -53 1 -64 5 -12 4 -24 -1 -27 -6 -3 -6
-15 0 -30 6 -15 6 -25 0 -25 -5 0 -5 -12 0 -29 4 -15 4 -34 0 -42 -5 -7 -5
-20 0 -29 5 -9 5 -22 0 -30 -5 -8 -5 -21 1 -31 6 -11 5 -20 -1 -24 -6 -3 -6
-15 0 -30 6 -15 6 -27 0 -30 -6 -3 -6 -15 0 -30 6 -15 6 -27 0 -30 -5 -3 -6
-15 -1 -28 5 -12 5 -32 0 -44 -5 -13 -4 -25 1 -28 6 -3 6 -15 0 -30 -5 -13 -6
-26 -1 -29 4 -3 5 -28 1 -56 -4 -27 -3 -50 1 -50 4 0 4 -13 -1 -30 -5 -17 -5
-30 0 -30 5 0 7 -6 4 -14 -7 -17 32 -41 41 -26 4 6 13 7 24 1 10 -6 23 -6 31
-1 8 5 19 6 25 2 14 -9 47 -9 68 1 9 4 17 4 17 0 0 -4 13 -8 29 -8 16 0 27 3
25 7 -3 4 5 4 18 -1 13 -4 35 -5 50 0 16 4 28 4 28 1 0 -9 76 -6 92 4 6 4 9 3
6 -2 -4 -5 7 -9 23 -9 16 0 29 4 29 8 0 5 5 5 11 2 16 -10 79 -12 79 -2 0 4 8
4 17 -2 10 -5 26 -5 40 0 13 5 23 5 23 1 0 -9 76 -6 92 4 6 4 9 3 5 -2 -6 -10
104 -11 121 0 6 3 13 2 16 -3 3 -5 15 -7 26 -4 16 4 20 14 21 47 1 22 1 45 -1
51 -1 5 -1 33 0 62 1 73 1 69 1 153 -1 41 -1 112 -1 158 -1 45 -1 90 -1 100 0
9 0 64 0 122 0 58 -1 110 -1 115 0 6 1 15 2 20 1 6 2 38 1 72 l-1 62 -45 -2
c-25 -1 -45 0 -45 3 0 4 -28 4 -125 0 -11 -1 -53 0 -93 1 -40 1 -75 0 -78 -3
-3 -3 -20 -2 -39 2 -19 4 -36 5 -39 3 -7 -8 -106 -9 -106 -2 0 3 -17 3 -37 -1
-21 -3 -55 -3 -75 1 -21 3 -38 3 -38 -1 0 -4 -18 -4 -40 0 -22 4 -58 4 -80 0
-21 -4 -41 -4 -42 -1 -2 3 -18 5 -35 3z"/>
</g>
</svg>
